<svg width="30" height="31" viewBox="0 0 30 31" fill="none" xmlns="http://www.w3.org/2000/svg">
<path d="M21.25 25.5H27.5V23C27.5 20.9289 25.8211 19.25 23.75 19.25C22.5555 19.25 21.4914 19.8085 20.8047 20.6786M21.25 25.5H8.75M21.25 25.5V23C21.25 22.1797 21.092 21.3963 20.8047 20.6786M8.75 25.5H2.5V23C2.5 20.9289 4.17893 19.25 6.25 19.25C7.44451 19.25 8.50857 19.8085 9.19531 20.6786M8.75 25.5V23C8.75 22.1797 8.90803 21.3963 9.19531 20.6786M9.19531 20.6786C10.1169 18.3763 12.3685 16.75 15 16.75C17.6315 16.75 19.8831 18.3763 20.8047 20.6786M18.75 9.25C18.75 11.3211 17.0711 13 15 13C12.9289 13 11.25 11.3211 11.25 9.25C11.25 7.17893 12.9289 5.5 15 5.5C17.0711 5.5 18.75 7.17893 18.75 9.25ZM26.25 13C26.25 14.3807 25.1307 15.5 23.75 15.5C22.3693 15.5 21.25 14.3807 21.25 13C21.25 11.6193 22.3693 10.5 23.75 10.5C25.1307 10.5 26.25 11.6193 26.25 13ZM8.75 13C8.75 14.3807 7.63071 15.5 6.25 15.5C4.86929 15.5 3.75 14.3807 3.75 13C3.75 11.6193 4.86929 10.5 6.25 10.5C7.63071 10.5 8.75 11.6193 8.75 13Z" stroke="currentColor" stroke-width="2" stroke-linecap="round" stroke-linejoin="round"/>
</svg>
