<svg width="40" height="40" viewBox="0 0 40 40" fill="none" xmlns="http://www.w3.org/2000/svg">
<rect width="40" height="40" rx="20" fill="#F0F7FD"/>
<path d="M27.1892 23.3324C27.1244 23.2543 27.0607 23.1762 26.9982 23.1008C26.1388 22.0613 25.6189 21.434 25.6189 18.4914C25.6189 16.968 25.2545 15.718 24.5361 14.7805C24.0064 14.0879 23.2904 13.5625 22.3467 13.1742C22.3345 13.1675 22.3237 13.1586 22.3146 13.148C21.9752 12.0113 21.0463 11.25 19.9986 11.25C18.951 11.25 18.0224 12.0113 17.683 13.1469C17.6739 13.157 17.6632 13.1656 17.6513 13.1723C15.449 14.0789 14.3787 15.8184 14.3787 18.4902C14.3787 21.434 13.8595 22.0613 12.9994 23.0996C12.9369 23.175 12.8732 23.2516 12.8084 23.3313C12.6409 23.5333 12.5348 23.779 12.5026 24.0394C12.4704 24.2999 12.5135 24.5641 12.6267 24.8008C12.8678 25.3086 13.3814 25.6238 13.9678 25.6238H26.0338C26.6174 25.6238 27.1275 25.309 27.3693 24.8035C27.4831 24.5668 27.5266 24.3023 27.4947 24.0416C27.4627 23.7809 27.3567 23.5348 27.1892 23.3324Z" fill="#2290FF"/>
<path d="M19.9986 28.75C20.563 28.7495 21.1169 28.5963 21.6013 28.3066C22.0857 28.0168 22.4827 27.6014 22.7501 27.1043C22.7627 27.0805 22.769 27.0538 22.7682 27.0269C22.7674 26.9999 22.7597 26.9736 22.7458 26.9506C22.7319 26.9275 22.7123 26.9084 22.6888 26.8952C22.6653 26.8819 22.6388 26.875 22.6119 26.875H17.3861C17.3591 26.8749 17.3325 26.8818 17.309 26.895C17.2855 26.9082 17.2658 26.9273 17.2518 26.9504C17.2379 26.9735 17.2301 26.9998 17.2293 27.0268C17.2286 27.0537 17.2348 27.0804 17.2474 27.1043C17.5148 27.6013 17.9117 28.0167 18.3961 28.3065C18.8804 28.5962 19.4342 28.7495 19.9986 28.75Z" fill="#2290FF"/>
</svg>
