<svg width="78" height="26" viewBox="0 0 78 26" fill="none" xmlns="http://www.w3.org/2000/svg">
<g filter="url(#filter0_d_1581_19828)">
<path d="M3.15091 19.2061C2.69888 19.1928 2.33327 19.0067 2.05407 18.6478C1.78817 18.3819 1.64858 18.0561 1.63528 17.6706C1.62199 16.3145 1.5954 14.3934 1.55551 11.9072L1.49568 6.30338C1.49568 5.91783 1.62863 5.5921 1.89453 5.3262C2.16043 5.047 2.48616 4.90741 2.87171 4.90741C3.25727 4.89411 3.58299 5.02042 3.84889 5.28631C4.12809 5.55221 4.27433 5.87794 4.28763 6.26349L4.34745 11.4884L4.40728 16.5139C5.05873 16.5139 6.00268 16.5073 7.23911 16.494C8.48884 16.4807 9.40619 16.474 9.99117 16.474C10.3767 16.474 10.7024 16.607 10.9683 16.8729C11.2475 17.1255 11.3871 17.4379 11.3871 17.8102C11.3871 18.1824 11.2475 18.5082 10.9683 18.7874C10.7024 19.0533 10.3767 19.1862 9.99117 19.1862C9.55243 19.1862 8.41571 19.1928 6.58101 19.2061C4.73301 19.2194 3.58964 19.2194 3.15091 19.2061ZM17.2212 19.3457C16.1576 19.3457 15.227 19.1197 14.4293 18.6677C13.6316 18.2157 13.02 17.6107 12.5946 16.8529C12.1824 16.0951 11.9764 15.2575 11.9764 14.3402C11.9764 13.1835 12.1891 12.1864 12.6145 11.3488C13.04 10.4979 13.6515 9.82655 14.4492 9.33463C15.2469 8.84272 16.151 8.59676 17.1614 8.59676C18.1984 8.59676 19.0825 8.80948 19.8138 9.23492C20.5583 9.66036 21.1167 10.2387 21.4889 10.9699C21.8612 11.6878 22.0473 12.4922 22.0473 13.3829C22.0473 13.835 21.9011 14.1873 21.6086 14.4399C21.3161 14.6925 20.9239 14.8387 20.432 14.8786C19.4349 14.9717 18.5507 15.0182 17.7796 15.0182C17.0484 15.0182 16.264 14.9983 15.4264 14.9584L14.7284 14.9385C14.8082 15.5899 15.0608 16.1018 15.4862 16.474C15.925 16.833 16.5831 16.9992 17.4605 16.9726C17.8594 16.9593 18.1785 16.9128 18.4178 16.833C18.6571 16.7399 18.8698 16.607 19.0559 16.4341C19.1623 16.3278 19.2753 16.2148 19.395 16.0951C19.5146 15.9755 19.6476 15.8824 19.7938 15.8159C19.9401 15.7495 20.1195 15.7162 20.3323 15.7162C20.6779 15.7162 20.9638 15.8359 21.1898 16.0752C21.4291 16.3012 21.5488 16.5671 21.5488 16.8729C21.5488 17.2983 21.336 17.7038 20.9106 18.0894C20.4852 18.4749 19.9334 18.7807 19.2554 19.0067C18.5906 19.2327 17.9126 19.3457 17.2212 19.3457ZM14.7683 12.9043C15.5527 13.0107 16.4235 13.0506 17.3808 13.024C18.2981 13.0107 18.9695 12.9509 19.395 12.8445C19.3684 12.2728 19.1955 11.8141 18.8765 11.4685C18.5707 11.1228 18.0123 10.9566 17.2013 10.9699C16.5233 10.9832 15.9715 11.1361 15.5461 11.4286C15.1206 11.7211 14.8614 12.213 14.7683 12.9043ZM27.4955 19.2061C27.2296 19.2061 26.9703 19.1197 26.7177 18.9469C26.5715 18.8937 26.4319 18.8272 26.2989 18.7475L25.7804 18.4483C25.2486 18.1425 24.8498 17.8567 24.5839 17.5908C24.3579 17.2983 24.2183 17.0125 24.1651 16.7333C24.1119 16.4408 24.0787 16.0154 24.0654 15.457V15.0581C24.0521 14.6726 24.0455 13.7752 24.0455 12.3659C24.0455 11.7942 24.0521 11.3621 24.0654 11.0696H23.6865C23.3541 11.0696 23.0616 10.9566 22.809 10.7306C22.5697 10.4913 22.4501 10.1922 22.4501 9.83319C22.4501 9.46093 22.5764 9.15515 22.829 8.91584C23.0816 8.66324 23.3741 8.53693 23.7064 8.53693H24.0654L24.0853 7.67941V7.06119C24.0986 6.63575 24.2382 6.31003 24.5041 6.08401C24.7833 5.8447 25.1024 5.72505 25.4614 5.72505C25.8336 5.72505 26.1594 5.85135 26.4385 6.10395C26.731 6.35656 26.8773 6.70223 26.8773 7.14096L26.8374 8.49705H27.5753C28.0539 8.49705 28.4128 8.62335 28.6522 8.87596C28.8915 9.12856 29.0111 9.44764 29.0111 9.83319C29.0111 10.2055 28.8848 10.5245 28.6322 10.7904C28.3796 11.043 28.0074 11.1693 27.5154 11.1693H26.7776C26.7776 11.7144 26.7709 12.1199 26.7576 12.3858C26.7443 12.665 26.7377 13.0639 26.7377 13.5824C26.7377 14.4333 26.7643 15.1711 26.8175 15.796C26.8706 15.8492 26.9039 15.8758 26.9172 15.8758L27.1166 16.0154L27.2761 16.0951L27.4556 16.1948L27.6152 16.2746C27.8545 16.381 28.0605 16.5006 28.2334 16.6336C28.6455 16.9128 28.8516 17.285 28.8516 17.7503C28.8516 18.1226 28.7186 18.4616 28.4527 18.7674C28.1868 19.0599 27.8678 19.2061 27.4955 19.2061Z" fill="#2290FF"/>
<path d="M32.2132 19.2061C31.9473 19.2061 31.6881 19.1197 31.4354 18.9469C31.2892 18.8937 31.1496 18.8272 31.0167 18.7475L30.4982 18.4483C29.9664 18.1425 29.5675 17.8567 29.3016 17.5908C29.0756 17.2983 28.936 17.0125 28.8828 16.7333C28.8296 16.4408 28.7964 16.0154 28.7831 15.457V15.0581C28.7698 14.6726 28.7632 13.7752 28.7632 12.3659C28.7632 11.7942 28.7698 11.3621 28.7831 11.0696H28.4042C28.0718 11.0696 27.7793 10.9566 27.5267 10.7306C27.2874 10.4913 27.1678 10.1922 27.1678 9.83319C27.1678 9.46093 27.2941 9.15515 27.5467 8.91584C27.7993 8.66324 28.0918 8.53693 28.4241 8.53693H28.7831L28.803 7.67941V7.06119C28.8163 6.63575 28.9559 6.31003 29.2218 6.08401C29.501 5.8447 29.8201 5.72505 30.1791 5.72505C30.5513 5.72505 30.8771 5.85135 31.1563 6.10395C31.4487 6.35656 31.595 6.70223 31.595 7.14096L31.5551 8.49705H32.293C32.7716 8.49705 33.1306 8.62335 33.3699 8.87596C33.6092 9.12856 33.7288 9.44764 33.7288 9.83319C33.7288 10.2055 33.6025 10.5245 33.3499 10.7904C33.0973 11.043 32.7251 11.1693 32.2331 11.1693H31.4953C31.4953 11.7144 31.4886 12.1199 31.4753 12.3858C31.462 12.665 31.4554 13.0639 31.4554 13.5824C31.4554 14.4333 31.482 15.1711 31.5352 15.796C31.5883 15.8492 31.6216 15.8758 31.6349 15.8758L31.8343 16.0154L31.9938 16.0951L32.1733 16.1948L32.3329 16.2746C32.5722 16.381 32.7782 16.5006 32.9511 16.6336C33.3632 16.9128 33.5693 17.285 33.5693 17.7503C33.5693 18.1226 33.4363 18.4616 33.1704 18.7674C32.9045 19.0599 32.5855 19.2061 32.2132 19.2061ZM39.7781 19.3457C38.7145 19.3457 37.7838 19.1197 36.9861 18.6677C36.1884 18.2157 35.5769 17.6107 35.1514 16.8529C34.7393 16.0951 34.5332 15.2575 34.5332 14.3402C34.5332 13.1835 34.7459 12.1864 35.1714 11.3488C35.5968 10.4979 36.2084 9.82655 37.0061 9.33463C37.8038 8.84272 38.7078 8.59676 39.7183 8.59676C40.7553 8.59676 41.6394 8.80948 42.3706 9.23492C43.1151 9.66036 43.6735 10.2387 44.0458 10.9699C44.418 11.6878 44.6042 12.4922 44.6042 13.3829C44.6042 13.835 44.4579 14.1873 44.1654 14.4399C43.8729 14.6925 43.4807 14.8387 42.9888 14.8786C41.9917 14.9717 41.1076 15.0182 40.3365 15.0182C39.6053 15.0182 38.8209 14.9983 37.9833 14.9584L37.2853 14.9385C37.3651 15.5899 37.6177 16.1018 38.0431 16.474C38.4818 16.833 39.1399 16.9992 40.0174 16.9726C40.4162 16.9593 40.7353 16.9128 40.9746 16.833C41.2139 16.7399 41.4267 16.607 41.6128 16.4341C41.7192 16.3278 41.8322 16.2148 41.9518 16.0951C42.0715 15.9755 42.2044 15.8824 42.3507 15.8159C42.4969 15.7495 42.6764 15.7162 42.8891 15.7162C43.2348 15.7162 43.5206 15.8359 43.7466 16.0752C43.9859 16.3012 44.1056 16.5671 44.1056 16.8729C44.1056 17.2983 43.8929 17.7038 43.4674 18.0894C43.042 18.4749 42.4903 18.7807 41.8122 19.0067C41.1475 19.2327 40.4694 19.3457 39.7781 19.3457ZM37.3252 12.9043C38.1096 13.0107 38.9804 13.0506 39.9376 13.024C40.855 13.0107 41.5264 12.9509 41.9518 12.8445C41.9252 12.2728 41.7524 11.8141 41.4333 11.4685C41.1275 11.1228 40.5691 10.9566 39.7581 10.9699C39.0801 10.9832 38.5284 11.1361 38.1029 11.4286C37.6775 11.7211 37.4182 12.213 37.3252 12.9043ZM46.7618 18.7475C46.4826 18.4816 46.3431 18.1625 46.3431 17.7902C46.3298 16.474 46.3231 15.437 46.3231 14.6792C46.2965 14.5197 46.2965 14.3668 46.3231 14.2205C46.3098 12.7448 46.3032 11.4086 46.3032 10.2121C46.3032 9.6936 46.4361 9.30139 46.702 9.0355C46.9812 8.7563 47.3136 8.6167 47.6991 8.6167C47.9783 8.6167 48.2309 8.69647 48.457 8.85601C48.6963 9.00226 48.8691 9.26816 48.9755 9.65371C49.5073 9.36122 50.305 9.02885 51.3685 8.65659C51.7142 8.53693 52.0466 8.55688 52.3657 8.71642C52.698 8.86266 52.9241 9.10862 53.0437 9.45429C53.1634 9.79996 53.1434 10.139 52.9839 10.4714C52.8376 10.7904 52.5917 11.0098 52.246 11.1295C51.0229 11.5549 49.9792 11.9737 49.1151 12.3858C49.0619 12.8113 49.0552 13.4162 49.0951 14.2006C49.1084 15.0382 49.1217 16.2214 49.135 17.7503C49.135 18.1359 48.9954 18.4683 48.7162 18.7475C48.4503 19.0267 48.1246 19.1663 47.739 19.1663C47.3668 19.1663 47.041 19.0267 46.7618 18.7475Z" fill="#2290FF"/>
<rect x="53.625" y="1.16626" width="23.377" height="23.377" rx="5.53957" fill="#2290FF"/>
<path d="M64.575 18.8538C64.0964 18.8538 63.5779 18.7607 63.0195 18.5746C62.3282 18.3087 61.7499 17.9165 61.2845 17.398C60.8325 16.8662 60.5533 16.2879 60.447 15.663C60.3672 15.2509 60.3273 14.852 60.3273 14.4665C60.3273 13.5757 60.5001 12.7381 60.8458 11.9537C61.3244 10.8502 61.9958 9.95947 62.86 9.28143C63.7242 8.60339 64.708 8.26436 65.8115 8.26436C66.2103 8.26436 66.6424 8.31754 67.1077 8.4239C67.4135 8.50367 67.7127 8.64327 68.0051 8.84269H68.1049L68.3043 8.82275C68.6367 8.82275 68.9291 8.94241 69.1818 9.18172C69.4477 9.42103 69.6005 9.71351 69.6404 10.0592L69.78 11.4352C69.8066 12.0202 69.8399 13.0173 69.8797 14.4266L69.9196 15.5035C69.9462 16.1682 69.9595 16.607 69.9595 16.8197C69.9728 17.0191 69.9662 17.2119 69.9396 17.398C69.8864 17.7836 69.7401 18.1159 69.5008 18.3951C69.2748 18.661 68.9757 18.8006 68.6034 18.8139C68.2976 18.8272 68.0184 18.7541 67.7658 18.5946C67.5265 18.4217 67.3537 18.1159 67.2473 17.6772C66.9415 18.0495 66.5693 18.322 66.1306 18.4948C65.6121 18.7076 65.0935 18.8272 64.575 18.8538ZM64.595 16.0419C64.9938 16.0419 65.406 15.9156 65.8314 15.663C65.9378 15.5965 66.0574 15.4968 66.1904 15.3639L66.4895 15.0847L66.8285 14.6061C66.9083 14.513 67.0014 14.4465 67.1077 14.4066C67.1077 13.2899 67.0745 12.3459 67.008 11.5748L66.8086 11.4352L66.5294 11.2158L66.3499 11.0962C66.1372 11.043 65.971 11.0164 65.8514 11.0164C65.3727 11.0164 64.9074 11.2026 64.4554 11.5748C64.0167 11.9471 63.6643 12.4656 63.3984 13.1303C63.1857 13.6488 63.0794 14.1141 63.0794 14.5263C63.0794 14.8853 63.1591 15.1844 63.3187 15.4237C63.4915 15.663 63.7308 15.8358 64.0366 15.9422C64.236 16.0087 64.4222 16.0419 64.595 16.0419Z" fill="white"/>
</g>
<defs>
<filter id="filter0_d_1581_19828" x="1.04902" y="1.16626" width="76.3941" height="24.3741" filterUnits="userSpaceOnUse" color-interpolation-filters="sRGB">
<feFlood flood-opacity="0" result="BackgroundImageFix"/>
<feColorMatrix in="SourceAlpha" type="matrix" values="0 0 0 0 0 0 0 0 0 0 0 0 0 0 0 0 0 0 127 0" result="hardAlpha"/>
<feOffset dy="0.553957"/>
<feGaussianBlur stdDeviation="0.221583"/>
<feColorMatrix type="matrix" values="0 0 0 0 0 0 0 0 0 0 0 0 0 0 0 0 0 0 0.25 0"/>
<feBlend mode="normal" in2="BackgroundImageFix" result="effect1_dropShadow_1581_19828"/>
<feBlend mode="normal" in="SourceGraphic" in2="effect1_dropShadow_1581_19828" result="shape"/>
</filter>
</defs>
</svg>
